<?xml version="1.0" encoding="utf-8"?>
<!-- Generator: Adobe Illustrator 25.2.1, SVG Export Plug-In . SVG Version: 6.00 Build 0)  -->
<svg version="1.1" id="Layer_1" xmlns="http://www.w3.org/2000/svg" xmlns:xlink="http://www.w3.org/1999/xlink" x="0px" y="0px"
	 viewBox="0 0 1200 532" style="enable-background:new 0 0 1200 532;" xml:space="preserve">
<style type="text/css">
	.st0{fill:#292E52;}
	.st1{fill:#FFFFFF;}
	.st2{fill:#E6568D;}
	.st3{fill:#32375C;}
	.st4{fill:#231F20;}
</style>
<g>
	<g>
		<path class="st0" d="M200.9,150.6l-7.9-16.2c-0.5-0.9-1.3-1.7-2.3-2c-1-0.3-2.1-0.3-3,0.2c-7.6,3.7-14.6,7.6-21,11.7
			c-0.2-8.9-0.6-16.6-1.3-23.2c-0.1-1.1-0.7-2-1.5-2.7c-0.8-0.7-1.9-0.9-3-0.8l-17.4,2.4c-1,0.1-2,0.7-2.6,1.6
			c-0.6,0.8-0.9,1.9-0.7,3c0.7,4.5,2.3,12,4.9,22.8c-5.9-1.8-13.5-3.6-22.9-5.5c-1-0.2-2.1,0-3,0.6c-0.9,0.6-1.5,1.5-1.7,2.6
			l-3.1,17.7c-0.2,1.1,0.1,2.2,0.7,3c0.6,0.9,1.6,1.4,2.7,1.6c7.6,0.9,15.3,1.6,23.2,2.2c-3.3,4.9-7.5,11.5-12.6,19.9
			c-0.6,0.9-0.7,2-0.4,3.1c0.3,1,1,1.9,2,2.4l15.5,8.2c0.6,0.3,1.2,0.5,1.8,0.5c1.4,0,2.7-0.7,3.4-2c3-5.4,6.3-12.8,9.8-21.9
			c6,7.5,11.4,13.6,15.9,18.3c1.5,1.5,4,1.6,5.5,0.1l12.9-12.2c0.8-0.7,1.2-1.8,1.2-2.9c0-1.1-0.5-2.1-1.3-2.9
			c-7-6.5-12.8-11.6-17.6-15.3c7.2-2.3,14.5-5.3,21.7-8.9C201,154.9,201.8,152.5,200.9,150.6z"/>
		<path class="st2" d="M315.8,111.5c-31.9-40.8-84.9-71.8-141.1-69.3C64.4,47.2,0.2,135.4,9.3,223.2c8.9,85.5,81.4,136.2,130.8,118
			c26.9-9.9,36-34.1,32.4-57.7c-1.6-10.8-3.4-18.3,1.4-19.2c5.9-1.1,8.1,11.1,10,17.9c4,14.4,7.8,36.6,26.3,31.4
			c12.3-4.4,11.2-14.8,9.7-26.6c-1.3-9.6-3.2-19.9-3.7-23.1c-2.7-16.3-20.6-40.8-49.4-35.1c-26.7,5.3-35.1,28.4-31.7,50.3
			c1,6.3,4.1,20.9-3.5,25.8c-6,3.9-11.2,3.4-16,2.8c-43.9-6-78.7-62.6-68.3-124.7C56,131.3,106,78.1,178.9,79.9
			c80.8,2,138.2,71.4,131.9,144.1c-3.9,44.8-24.7,85.1-81.5,113.6c-17.1,8.6-48.3,19-84.6,25.8c-17.2,3.2-43.4,18.6-38.9,49.4
			c3.9,26.1,27.8,36.7,52.5,33.8c7.2-0.9,40.1-6,46.2-6.6c6.1-0.6,8.7,0.8,9.4,3.1c0.7,2.3-0.8,5.3-5.1,6.8
			c-4.5,1.5-24.3,5.9-33.5,8.7c-7.7,2.4-12.5,9.5-11.5,17.4c0,0.2,0.1,0.4,0.1,0.5c1.4,8.4,9.2,14.3,17.8,13.2
			c6.9-0.9,19.6-3,26.8-4.2c15-2.6,28.1-7.1,36.4-21.9c4-7.2,7-18.3,4-29.8c-2.6-10.2-8.8-20.1-23.7-26.9
			c-12.8-5.9-25.5-3.3-40.7-1.2c-15.3,2.1-26.7,3.9-30.1,4.4c-5.5,0.8-11.6,1.2-12.6-3.5c-1-4.7,4.4-6.3,9.9-7.3
			c3.4-0.6,21.9-4.3,27.7-5.7c22.4-5.3,44.6-12.8,66-23C300,344.8,343.7,297,348,226.8C349.8,197,345,148.9,315.8,111.5z"/>
	</g>
	<g>
		<path class="st3" d="M519.8,281H456v49.1h75.8v26.4H421.5V184.7h110v26.6H456v43.2h63.7V281z"/>
		<path class="st3" d="M541.7,293.8c0-20.1,4.3-36.4,13-48.7c8.7-12.4,21-18.5,36.8-18.5c6.4,0,12.1,1.4,17.2,4.1
			c5.1,2.8,9.6,6.7,13.5,11.8v-57.7h34.6v171.9h-29.4l-3-15.7c-4,5.9-8.8,10.4-14.3,13.5s-11.8,4.7-18.9,4.7
			c-15.7,0-27.8-5.7-36.5-17.2c-8.7-11.5-13-26.7-13-45.6V293.8z M576,296.3c0,11.2,1.9,20,5.7,26.4c3.8,6.4,9.9,9.6,18.4,9.6
			c5,0,9.3-1,13-3c3.7-2,6.7-4.9,9.1-8.8V266c-2.4-4-5.4-7.1-9-9.4c-3.7-2.2-7.9-3.4-12.8-3.4c-8.4,0-14.6,3.7-18.5,11.2
			c-3.9,7.5-5.8,17.2-5.8,29.3V296.3z"/>
		<path class="st3" d="M720.3,330.1h60.6v26.4h-95.1V184.7h34.5V330.1z"/>
		<path class="st3" d="M835,212.3h-34.5v-25.9H835V212.3z M835,356.6h-34.5V228.9H835V356.6z"/>
		<path class="st3" d="M855.7,293.8c0-20.1,4.4-36.4,13.1-48.7c8.7-12.4,21-18.5,36.8-18.5c7.2,0,13.5,1.6,18.9,4.8
			c5.4,3.2,10.1,7.8,13.9,13.8l2.7-16.3h29.6V356c0,16.6-5.4,29.5-16.3,38.5c-10.9,9.1-26,13.6-45.4,13.6c-6.5,0-13.3-0.9-20.5-2.7
			c-7.2-1.8-13.9-4.2-20.1-7.3l5.8-25.7c5.3,2.5,10.7,4.4,16.3,5.7c5.6,1.3,11.7,1.9,18.2,1.9c9.4,0,16.4-2,20.8-5.9
			c4.4-3.9,6.7-10.1,6.7-18.4v-11.6c-3.8,4.8-8.2,8.5-13.3,11c-5.1,2.5-11,3.8-17.6,3.8c-15.7,0-27.9-5.7-36.6-17.2
			c-8.7-11.5-13.1-26.7-13.1-45.6V293.8z M890.2,296.3c0,11.2,1.9,20,5.6,26.4c3.7,6.4,9.9,9.6,18.4,9.6c5.3,0,9.7-1,13.4-2.9
			c3.7-1.9,6.6-4.7,8.8-8.4v-55.4c-2.2-3.9-5.1-7-8.8-9.1c-3.7-2.1-8-3.2-13.2-3.2c-8.4,0-14.6,3.7-18.4,11.2
			c-3.9,7.5-5.8,17.2-5.8,29.3V296.3z"/>
		<path class="st3" d="M1028.4,245c4-5.8,8.9-10.4,14.8-13.6c5.8-3.3,12.3-4.9,19.4-4.9c13.3,0,23.7,4.4,31.3,13.3
			s11.4,22.5,11.4,41v75.8h-34.5v-76c0-9.9-1.6-16.9-4.8-21.1c-3.2-4.1-8-6.2-14.3-6.2c-5.3,0-9.9,0.8-13.8,2.5
			c-3.9,1.7-7.1,4.1-9.5,7.3v93.5h-34.5V184.7h34.5V245z"/>
		<path class="st3" d="M1168,184.7v44.1h21.6v24.2H1168v65c0,5,1,8.5,3.1,10.6c2.1,2.1,4.8,3.2,8.2,3.2c1.8,0,3.4-0.1,4.7-0.3
			c1.3-0.2,2.9-0.5,4.6-1l2.8,24.9c-3.5,1.2-6.8,2.1-10.1,2.7c-3.3,0.6-6.8,0.9-10.7,0.9c-11.9,0-21-3.3-27.4-9.8
			c-6.4-6.5-9.6-16.9-9.6-31v-65.2H1115v-24.2h18.6v-44.1H1168z"/>
	</g>
</g>
</svg>
