<?xml version="1.0" encoding="UTF-8"?>
<svg version="1.1" xmlns="http://www.w3.org/2000/svg" width="256" height="256">
<path d="M0 0 C11.17361814 4.49418589 21.79199558 9.42171573 30.9375 17.37890625 C34.65063444 19.31835594 37.63134232 18.5555578 41.5625 17.75 C42.99695507 17.4961941 44.43186322 17.24493705 45.8671875 16.99609375 C46.60582031 16.86348145 47.34445313 16.73086914 48.10546875 16.59423828 C63.58047099 13.89518534 77.81944247 14.22432705 93.2578125 16.99609375 C93.97718994 17.11919922 94.69656738 17.24230469 95.43774414 17.36914062 C96.84931931 17.62216341 98.2555338 17.90726132 99.65405273 18.22460938 C103.57921809 18.98847619 105.37933557 18.84569235 108.95703125 16.9765625 C110.10874905 16.12590571 111.24756162 15.25758347 112.375 14.375 C127.11465286 3.75635311 150.73955165 -9.04351177 169.5625 -6.25 C176.72913548 -2.19341388 178.25904158 4.30257751 180.47265625 11.85546875 C185.27127924 31.60794012 184.94837504 56.58122695 175.65136719 75.02124023 C174.5625 76.75 174.5625 76.75 172.88671875 78.23168945 C172.44972656 78.73273193 172.01273438 79.23377441 171.5625 79.75 C172.15790451 82.79992922 172.88432491 85.55188279 173.8125 88.5 C184.34879767 125.38572658 169.22471245 163.83525048 155.375 197.875 C154.98344727 198.85210937 154.59189453 199.82921875 154.18847656 200.8359375 C150.72901424 209.11321411 146.15209249 215.64257282 139.5625 221.75 C138.82966797 222.47316406 138.82966797 222.47316406 138.08203125 223.2109375 C128.97365355 231.73516747 117.46621776 234.01811721 105.61132812 236.34326172 C103.887044 236.68557075 102.16914648 237.05982861 100.453125 237.44140625 C92.88796997 239.04172751 83.23533056 240.95280266 76.03515625 237.55859375 C73.9375 236.125 73.9375 236.125 72.2109375 234.6484375 C71.66695313 234.35195312 71.12296875 234.05546875 70.5625 233.75 C68.60484856 234.38730858 68.60484856 234.38730858 66.5625 235.75 C56.04733512 241.54755036 44.72974587 238.65235078 33.4375 236.5625 C32.3537207 236.3665625 31.26994141 236.170625 30.15332031 235.96875 C16.35515844 233.24339358 5.17095719 228.1170196 -4.4375 217.75 C-4.89785645 217.26869629 -5.35821289 216.78739258 -5.83251953 216.29150391 C-9.96614666 211.7698829 -12.38709171 207.2091549 -14.6875 201.5625 C-15.06173096 200.66394287 -15.43596191 199.76538574 -15.8215332 198.83959961 C-29.97413771 164.28947714 -46.41774888 123.47293334 -34 86.0625 C-32.90288508 82.74504235 -32.90288508 82.74504235 -32.4375 79.75 C-34.15280105 76.81050349 -34.15280105 76.81050349 -35.92578125 75.4140625 C-46.42101669 63.86116767 -44.08375349 38.33766847 -43.63720703 24.14160156 C-42.98576999 13.07832108 -40.06208179 3.17809347 -32.6875 -5.25 C-22.93889982 -9.58271119 -9.41739387 -3.45109465 0 0 Z M-18.4375 18.75 C-20.07524842 24.99508168 -20.7506054 30.80273138 -20.6875 37.25 C-20.69523437 38.04019531 -20.70296875 38.83039062 -20.7109375 39.64453125 C-20.69262568 45.23879234 -19.85523054 50.34389311 -18.4375 55.75 C-17.798125 55.110625 -17.15875 54.47125 -16.5 53.8125 C-15.80583984 53.12607422 -15.80583984 53.12607422 -15.09765625 52.42578125 C-13.89730782 51.21413542 -12.72034514 49.97917035 -11.55859375 48.73046875 C-6.23636836 43.1338008 -0.56485513 38.83526462 5.83984375 34.59765625 C8.56478992 32.87306862 8.56478992 32.87306862 10.5625 30.75 C7.61006844 29.30015333 4.64956895 27.86754077 1.6875 26.4375 C0.86507812 26.03337891 0.04265625 25.62925781 -0.8046875 25.21289062 C-6.55299589 22.45100808 -12.27915679 20.40245866 -18.4375 18.75 Z M148.625 21.375 C147.95782959 21.64135254 147.29065918 21.90770508 146.60327148 22.18212891 C140.67452441 24.60356 135.08776131 27.51065761 129.5625 30.75 C132.56660277 33.92576578 135.76859998 36.4476575 139.3125 39 C144.55063234 42.87749552 149.10312784 47.01698455 153.5625 51.75 C154.89231687 53.08684055 156.22477351 54.42107434 157.5625 55.75 C159.20024842 49.50491832 159.8756054 43.69726862 159.8125 37.25 C159.82023437 36.45980469 159.82796875 35.66960938 159.8359375 34.85546875 C159.81762568 29.26120766 158.98023054 24.15610689 157.5625 18.75 C154.3585844 18.75 151.56247724 20.19769641 148.625 21.375 Z M1.796875 66.82421875 C-9.37218739 80.33654179 -15.04443794 95.73221815 -14.875 113.25 C-14.86525146 114.39218994 -14.85550293 115.53437988 -14.84545898 116.71118164 C-14.35297995 140.50877002 -5.50679414 163.08098843 3.3125 184.9375 C3.66465576 185.81510986 4.01681152 186.69271973 4.37963867 187.59692383 C8.2151388 196.82853867 12.66790007 205.88937134 22.33984375 209.90234375 C31.97728907 213.05923251 43.33919064 216.14320421 53.5625 215.75 C54.09359375 214.62980469 54.6246875 213.50960937 55.171875 212.35546875 C55.88487919 210.8825522 56.5984507 209.40991018 57.3125 207.9375 C57.66054687 207.19951172 58.00859375 206.46152344 58.3671875 205.70117188 C60.25714738 201.83375397 61.68622367 198.95877908 65.5625 196.75 C64.72074219 196.11835938 63.87898438 195.48671875 63.01171875 194.8359375 C58.72915368 191.2614735 55.63286188 186.86716387 52.375 182.375 C51.75947266 181.55 51.14394531 180.725 50.50976562 179.875 C42.18766754 168.5143894 42.18766754 168.5143894 43.0625 162.0625 C44.81086938 158.20151762 45.96413807 156.96055743 49.5625 154.75 C52.58771449 154.17556356 55.55269312 154.18890304 58.625 154.21875 C59.49390869 154.2149231 60.36281738 154.21109619 61.25805664 154.20715332 C63.09034386 154.20443821 64.9226701 154.21177133 66.75488281 154.22851562 C69.55361647 154.24993202 72.34978333 154.22870145 75.1484375 154.203125 C76.93229731 154.20576835 78.71615553 154.21089348 80.5 154.21875 C81.75018921 154.20660461 81.75018921 154.20660461 83.02563477 154.19421387 C86.99400013 154.25800937 89.08265199 154.45521821 92.53515625 156.57617188 C95.30995459 159.55146142 96.01682248 161.72562829 96.5625 165.75 C94.38648294 172.60139509 89.99595889 177.82216785 85.625 183.4375 C84.90892578 184.37400391 84.19285156 185.31050781 83.45507812 186.27539062 C80.33019724 190.33281242 77.25109515 194.1860092 73.5625 197.75 C74.17834961 198.00378418 74.79419922 198.25756836 75.42871094 198.51904297 C77.89198317 199.94007484 78.49628045 200.91093895 79.703125 203.4453125 C80.05117187 204.16074219 80.39921875 204.87617188 80.7578125 205.61328125 C81.10585937 206.35964844 81.45390625 207.10601562 81.8125 207.875 C82.35777344 209.00615234 82.35777344 209.00615234 82.9140625 210.16015625 C83.80781269 212.01821586 84.68662375 213.88344818 85.5625 215.75 C92.21783653 215.31358449 98.65821753 214.25235017 105.1875 212.9375 C105.98647705 212.78442383 106.7854541 212.63134766 107.60864258 212.47363281 C117.08748534 210.49948472 124.16462033 206.98300455 129.5625 198.75 C132.28199156 193.5635411 134.4362287 188.20187344 136.5625 182.75 C136.95373047 181.75935547 137.34496094 180.76871094 137.74804688 179.74804688 C148.75837489 151.67086217 161.28926213 118.0198338 150.03515625 88.08203125 C149.54917969 86.98246094 149.06320313 85.88289063 148.5625 84.75 C148.12808594 83.76386719 147.69367188 82.77773437 147.24609375 81.76171875 C137.62512831 62.38273708 119.67562674 49.18931263 99.5 42.375 C65.64848845 31.54762489 25.79428593 39.31645694 1.796875 66.82421875 Z " fill="#000000" transform="translate(58.4375,16.25)"/>
<path d="M0 0 C3.86619447 4.09361767 5.90422828 8.6203211 6.125 14.25 C5.0680311 20.49061426 2.78775994 24.25308426 -2.15625 28.15625 C-6.40254041 30.8584348 -11.0212955 30.83147541 -15.875 30.25 C-20.71375464 28.51446227 -24.03923577 25.50364635 -26.875 21.25 C-28.59737197 16.0828841 -28.53061622 11.14400242 -26.75 6 C-23.72132075 1.5579371 -20.49034069 -1.0490031 -15.5625 -3.1875 C-9.7123131 -4.07990139 -5.05075526 -3.07437277 0 0 Z " fill="#000000" transform="translate(181.875,103.75)"/>
<path d="M0 0 C3.83084349 2.61193874 6.65161815 5.67823629 8.75 9.875 C9.46910796 16.98355901 9.26392888 22.20365346 4.75 27.875 C-0.23959667 31.84631164 -4.32726374 32.51345459 -10.6640625 32.26171875 C-15.65658217 31.51510327 -18.28882944 28.9400809 -21.5625 25.3125 C-24.74293734 20.71853495 -24.75021734 16.27549459 -24.25 10.875 C-22.42465409 5.60177847 -19.64280797 3.07808914 -15.25 -0.125 C-10.0828841 -1.84737197 -5.14400242 -1.78061622 0 0 Z " fill="#000000" transform="translate(94.25,103.125)"/>
</svg>
